<svg width="24" height="24" viewBox="0 0 24 24" fill="none" xmlns="http://www.w3.org/2000/svg">
  <path d="M22.282 9.821a5.985 5.985 0 0 0-.516-4.91 6.046 6.046 0 0 0-6.51-2.9A6.065 6.065 0 0 0 4.981 4.18a5.985 5.985 0 0 0-3.998 2.9 6.046 6.046 0 0 0 .743 7.097 5.98 5.98 0 0 0 .51 4.911 6.078 6.078 0 0 0 6.283 2.9 5.952 5.952 0 0 0 3.726.962 6.066 6.066 0 0 0 5.772-4.206 5.99 5.99 0 0 0 3.998-2.9 6.056 6.056 0 0 0-.733-7.097z" fill="#74aa9c"/>
  <path d="M9.13 20.546a4.63 4.63 0 0 1-2.875-1.02 4.625 4.625 0 0 1-1.855-2.604 4.636 4.636 0 0 1 .193-3.364 4.627 4.627 0 0 1 2.404-2.404 4.636 4.636 0 0 1 3.364-.193 4.625 4.625 0 0 1 2.604 1.855 4.63 4.63 0 0 1 1.02 2.875 4.636 4.636 0 0 1-.193 3.364 4.627 4.627 0 0 1-2.404 2.404 4.636 4.636 0 0 1-3.364.193z" fill="#10a37f"/>
  <path d="M16.97 10.83a4.63 4.63 0 0 1-2.875-1.02 4.625 4.625 0 0 1-1.855-2.604 4.636 4.636 0 0 1 .193-3.364 4.627 4.627 0 0 1 2.404-2.404 4.636 4.636 0 0 1 3.364-.193 4.625 4.625 0 0 1 2.604 1.855 4.63 4.63 0 0 1 1.02 2.875 4.636 4.636 0 0 1-.193 3.364 4.627 4.627 0 0 1-2.404 2.404 4.636 4.636 0 0 1-3.364.193z" fill="#10a37f"/>
</svg>
